<?xml version="1.0" encoding="UTF-8"?><svg id="Layer_1" xmlns="http://www.w3.org/2000/svg" xmlns:xlink="http://www.w3.org/1999/xlink" viewBox="0 0 882.87 165.7"><defs><style>.cls-1{fill:url(#linear-gradient);}.cls-1,.cls-2,.cls-3{stroke-width:0px;}.cls-2{fill:#0d142d;}.cls-3{fill:url(#linear-gradient-2);}</style><linearGradient id="linear-gradient" x1="669.48" y1="151.77" x2="814.04" y2="7.21" gradientUnits="userSpaceOnUse"><stop offset="0" stop-color="#f7be00"/><stop offset="1" stop-color="#f7be00"/></linearGradient><linearGradient id="linear-gradient-2" x1="34.04" y1="179.38" x2="145.5" y2="-13.68" gradientUnits="userSpaceOnUse"><stop offset="0" stop-color="#1f65f4"/><stop offset=".09" stop-color="#2862f4"/><stop offset=".49" stop-color="#4f58f5"/><stop offset=".8" stop-color="#6852f6"/><stop offset="1" stop-color="#7150f7"/></linearGradient></defs><rect class="cls-1" x="643.61" y="26.87" width="196.31" height="105.24" rx="10.61" ry="10.61"/><path class="cls-2" d="M672.1,106.25c-.51,0-.94-.18-1.3-.54-.36-.36-.54-.79-.54-1.3v-49.76c0-.56.18-1.02.54-1.38s.79-.54,1.3-.54h20.49c3.97,0,7.44.63,10.4,1.87,2.95,1.25,5.25,3.13,6.88,5.66,1.63,2.52,2.45,5.67,2.45,9.44s-.82,6.97-2.45,9.44c-1.63,2.47-3.92,4.32-6.88,5.54-2.96,1.22-6.42,1.83-10.4,1.83h-11.39v17.89c0,.51-.17.94-.5,1.3-.33.36-.78.54-1.34.54h-7.26ZM681.04,78.04h11.16c2.96,0,5.22-.7,6.8-2.1,1.58-1.4,2.37-3.48,2.37-6.23,0-2.55-.74-4.6-2.22-6.15-1.48-1.55-3.8-2.33-6.96-2.33h-11.16v16.82Z"/><path class="cls-2" d="M722.47,106.25c-.51,0-.94-.18-1.3-.54-.36-.36-.54-.79-.54-1.3v-49.76c0-.56.18-1.02.54-1.38s.79-.54,1.3-.54h19.8c6.16,0,11.03,1.43,14.6,4.28,3.57,2.85,5.35,7.01,5.35,12.46,0,3.77-.93,6.91-2.79,9.4-1.86,2.5-4.35,4.31-7.45,5.43l11.16,19.49c.15.31.23.59.23.84,0,.46-.17.84-.5,1.15s-.7.46-1.11.46h-6.96c-.87,0-1.53-.23-1.99-.69-.46-.46-.82-.92-1.07-1.38l-9.86-18.12h-10.62v18.35c0,.51-.17.94-.5,1.3-.33.36-.78.54-1.34.54h-6.96ZM731.26,77.43h10.78c3.11,0,5.43-.7,6.96-2.1,1.53-1.4,2.29-3.38,2.29-5.92s-.75-4.55-2.25-6c-1.5-1.45-3.83-2.18-6.99-2.18h-10.78v16.21Z"/><path class="cls-2" d="M792.48,107.01c-4.54,0-8.43-.75-11.69-2.25-3.26-1.5-5.81-3.82-7.64-6.96-1.83-3.13-2.83-7.04-2.98-11.73-.05-2.19-.08-4.36-.08-6.5s.02-4.33.08-6.57c.15-4.64,1.17-8.51,3.06-11.62,1.88-3.11,4.47-5.45,7.76-7.03,3.29-1.58,7.12-2.37,11.5-2.37s8.23.79,11.54,2.37c3.31,1.58,5.91,3.92,7.8,7.03,1.88,3.11,2.9,6.98,3.06,11.62.1,2.24.15,4.43.15,6.57s-.05,4.31-.15,6.5c-.15,4.69-1.15,8.6-2.98,11.73-1.83,3.13-4.39,5.45-7.68,6.96-3.29,1.5-7.2,2.25-11.73,2.25ZM792.48,98.22c3.31,0,6.01-.98,8.1-2.94,2.09-1.96,3.21-5.16,3.36-9.59.1-2.24.15-4.32.15-6.23s-.05-3.96-.15-6.15c-.1-2.95-.65-5.36-1.64-7.22s-2.33-3.21-4.01-4.05-3.62-1.26-5.81-1.26-4.05.42-5.73,1.26c-1.68.84-3.02,2.19-4.01,4.05s-1.54,4.27-1.64,7.22c-.05,2.19-.08,4.24-.08,6.15s.02,3.99.08,6.23c.15,4.43,1.27,7.63,3.36,9.59,2.09,1.96,4.76,2.94,8.03,2.94Z"/><path class="cls-3" d="M139.2,82.85L178.62,13.47c1.19-2.09,1.22-4.64.09-6.75-1.13-2.12-3.27-3.51-5.66-3.68L131.66.02C131.49,0,131.32,0,131.15,0,129.26,0,127.44.77,126.12,2.14l-36.35,37.64L53.42,2.14C52.09.77,50.27,0,48.38,0,48.21,0,48.04,0,47.87.02L6.49,3.03c-2.39.17-4.53,1.56-5.66,3.68-1.13,2.12-1.1,4.67.09,6.75l39.42,69.38L.91,152.23c-1.19,2.09-1.22,4.64-.09,6.75,1.13,2.12,3.27,3.51,5.66,3.68l41.39,3.01c.17.01.34.02.51.02,1.89,0,3.71-.77,5.03-2.14l36.35-37.64,36.35,37.64c1.32,1.37,3.14,2.14,5.03,2.14.17,0,.34,0,.51-.02l41.39-3.01c2.39-.17,4.53-1.56,5.66-3.68,1.13-2.12,1.1-4.67-.09-6.75l-39.42-69.38ZM132.87,158.39l-8.48-46.62,45.8,44.09-37.3,2.72c0-.06,0-.12-.01-.19ZM91.97,113.41l5.75-32.84c.39-.06.77-.15,1.13-.28l18.16,23.29c-.58.85-.91,1.87-.95,2.97l-24.08,6.86ZM52.66,126.14c-.69-.96-1.67-1.68-2.81-2.06l.26-37.62,36.03,28.73-33.48,10.94ZM46.65,7.2l4.76,40.21c-.15.07-.29.15-.43.23L9.4,9.84l37.24-2.71s0,.05,0,.08ZM117.85,48.98c.08.2.19.37.3.55l-18.84,20.3c-.73-.34-1.53-.54-2.38-.54-1.55,0-2.95.63-3.98,1.63l-32.98-17.14,57.89-4.81ZM132.87,7.34c.02-.07.02-.15.02-.22l36.98,2.69-43.51,32.36c-.16-.11-.33-.2-.49-.3l7.01-34.53ZM121.7,101.08c-.68,0-1.32.14-1.93.36l-18.16-23.29c.62-.91.98-2,.98-3.18,0-1-.28-1.93-.74-2.74l18.84-20.3c.57.26,1.19.42,1.84.48l6.79,30.3-7.28,18.41c-.12,0-.23-.04-.35-.04ZM88.55,112.65l-35.99-28.7,39.34-6.39c.53,1.02,1.35,1.86,2.37,2.4l-5.72,32.69ZM54.56,58.14c1.24-.17,2.35-.72,3.2-1.55l33.59,17.45s0,.04,0,.06l-40.8,6.62,4.02-22.58ZM44.51,133.82c.55.44,1.17.78,1.86,1l.26,23.76-36.72-2.67,34.59-22.08ZM169.5,150.33l-42.71-41.11c.36-.75.59-1.58.59-2.47,0-1.76-.82-3.31-2.07-4.35l6.96-17.6,37.23,65.53ZM132.44,80.59l-6.48-28.94c1.66-.99,2.79-2.78,2.79-4.86,0-.63-.13-1.23-.32-1.8l41.96-31.2-37.96,66.8ZM128.89,9.34l-6.46,31.85c-2.39.27-4.32,2.01-4.86,4.31l-25.66,2.13,36.98-38.29ZM87.94,47.96l-28.93,2.41c-.72-1.72-2.26-3-4.13-3.37l-4.49-37.92,37.55,38.88ZM9.78,14.9l38.84,35.32c-.32.71-.51,1.5-.51,2.33,0,2.16,1.23,4.02,3.01,4.98l-4.09,22.94L9.78,14.9ZM46.61,85.97l-.26,38.09c-2.29.73-3.96,2.85-3.96,5.38,0,.51.09.99.21,1.45l-33.76,21.54,37.76-66.47ZM50.11,156.91l-.24-22.13c2.23-.75,3.85-2.84,3.86-5.32l33.44-10.93-37.06,38.37ZM91.15,117.28l25.85-7.37c.88,1.31,2.31,2.21,3.95,2.43l8.02,44.09-37.82-39.16Z"/><path class="cls-2" d="M232.4,59.02h-5.27c-.95,0-1.75.32-2.38.95-.63.63-.95,1.43-.95,2.38v52.04c0,.95.32,1.75.95,2.38.63.63,1.43.95,2.38.95h5.27c.97,0,1.76-.33,2.35-.97.58-.63.88-1.42.88-2.36v-52.04c0-.94-.29-1.73-.87-2.36-.59-.64-1.4-.98-2.35-.98Z"/><path class="cls-2" d="M233.17,37.39h-6.92c-.95,0-1.75.32-2.38.95s-.95,1.43-.95,2.38v5.93c0,.95.32,1.76.95,2.38.63.63,1.43.95,2.38.95h6.92c.95,0,1.75-.32,2.38-.95.63-.63.95-1.43.95-2.38v-5.93c0-.95-.32-1.75-.95-2.38-.63-.63-1.43-.95-2.38-.95Z"/><path class="cls-2" d="M292.28,61.17c-3.45-2.16-7.67-3.25-12.56-3.25s-8.53.83-11.53,2.46c-2.29,1.25-4.3,2.79-6,4.6v-2.63c0-.95-.32-1.75-.95-2.39-.63-.63-1.44-.95-2.38-.95h-5.16c-.95,0-1.75.32-2.38.95-.63.63-.95,1.43-.95,2.38v52.04c0,.95.32,1.76.95,2.38.63.63,1.43.95,2.38.95h5.49c.95,0,1.75-.32,2.38-.95s.95-1.43.95-2.38v-30.41c0-4.88,1.31-8.74,3.89-11.47,2.57-2.71,6.05-4.08,10.34-4.08,4.56,0,8.05,1.36,10.37,4.06,2.35,2.73,3.54,6.6,3.54,11.5v30.41c0,.95.32,1.75.95,2.38.63.63,1.43.95,2.38.95h5.49c.97,0,1.76-.33,2.35-.97.58-.63.88-1.42.88-2.36v-30.96c0-5-.87-9.45-2.6-13.24-1.75-3.83-4.38-6.86-7.83-9.02Z"/><path class="cls-2" d="M325.5,59.02h-5.27c-.95,0-1.75.32-2.38.95-.63.63-.95,1.43-.95,2.38v52.04c0,.95.32,1.75.95,2.38.63.63,1.43.95,2.38.95h5.27c.97,0,1.76-.33,2.35-.97.58-.63.88-1.42.88-2.36v-52.04c0-.94-.29-1.73-.87-2.36-.59-.64-1.4-.98-2.35-.98Z"/><path class="cls-2" d="M326.27,37.39h-6.92c-.95,0-1.75.32-2.38.95s-.95,1.43-.95,2.38v5.93c0,.95.32,1.76.95,2.38.63.63,1.43.95,2.38.95h6.92c.95,0,1.75-.32,2.38-.95.63-.63.95-1.43.95-2.38v-5.93c0-.95-.32-1.75-.95-2.38-.63-.63-1.43-.95-2.38-.95Z"/><path class="cls-2" d="M374.14,107.11h-6.7c-2.72,0-4.54-.84-5.56-2.57-1.09-1.84-1.64-4.43-1.64-7.71v-27.41h12.81c.95,0,1.75-.32,2.38-.95.63-.63.95-1.43.95-2.38v-3.73c0-.95-.32-1.75-.95-2.38-.63-.63-1.44-.95-2.38-.95h-12.81v-17.53c0-.95-.32-1.75-.95-2.39-.63-.63-1.43-.95-2.38-.95h-5.16c-.95,0-1.75.32-2.38.95-.63.63-.95,1.43-.95,2.39v17.53h-7.76c-.95,0-1.75.32-2.38.95-.63.63-.95,1.43-.95,2.38v3.73c0,.95.32,1.75.95,2.38.63.63,1.43.95,2.38.95h7.76v28.18c0,4.04.61,7.6,1.81,10.57,1.23,3.04,3.23,5.43,5.93,7.08,2.68,1.65,6.18,2.48,10.41,2.48h7.57c.95,0,1.75-.32,2.38-.95.63-.63.95-1.43.95-2.38v-3.95c0-.95-.32-1.75-.95-2.38-.63-.63-1.43-.95-2.38-.95Z"/><path class="cls-2" d="M454.18,39.26h-5.38c-1.11,0-1.96.31-2.52.92-.45.49-.77.91-.94,1.27l-22.67,42.99-22.52-42.92c-.13-.42-.45-.86-.95-1.36-.59-.59-1.45-.9-2.55-.9h-5.49c-.95,0-1.75.32-2.38.95-.63.63-.95,1.47-.95,2.49v71.7c0,.95.32,1.76.95,2.38.63.63,1.43.95,2.38.95h5.38c.95,0,1.75-.32,2.38-.95.63-.63.95-1.43.95-2.38v-50.66l16.8,32.8c.42.85.97,1.52,1.62,1.99.69.51,1.61.76,2.73.76h3.4c1.04,0,1.93-.25,2.65-.75.72-.49,1.26-1.19,1.58-2l16.81-32.81v50.66c0,.96.32,1.76.95,2.38.63.63,1.43.95,2.39.95h5.38c1.02,0,1.86-.32,2.49-.95.63-.63.95-1.43.95-2.38V42.7c0-1.02-.32-1.86-.95-2.49-.63-.63-1.47-.95-2.49-.95Z"/><path class="cls-2" d="M511.04,42.18c-.34-.86-.85-1.56-1.51-2.09-.7-.55-1.62-.83-2.76-.83h-7.47c-1.22,0-2.17.29-2.83.85-.61.52-1.09,1.22-1.44,2.08l-27.23,71.04-.04.16c-.08.47-.12.92-.12,1.34,0,.81.3,1.52.9,2.11.59.59,1.3.9,2.11.9h5.6c1.1,0,1.95-.3,2.55-.9.56-.56.88-1.09.95-1.49l5.84-15.07h34.9l5.84,15.08c.18.46.5.94.98,1.46.56.61,1.41.92,2.52.92h5.6c.8,0,1.53-.31,2.11-.9.6-.6.9-1.31.9-2.11,0-.46-.09-.95-.28-1.5l-27.12-71.05ZM516.69,89.21h-27.3l13.65-35.89,13.65,35.89Z"/><path class="cls-2" d="M607.46,113.68c-.11-.39-.29-.71-.45-.85l-24.7-34.89,23.3-33.8c.38-.57.57-1.2.57-1.87,0-.81-.3-1.52-.89-2.11-.59-.59-1.3-.9-2.11-.9h-6.26c-.82,0-1.55.21-2.16.64-.59.41-1.07.97-1.35,1.57l-18.55,26.5-18.64-26.47c-.42-.67-.89-1.2-1.41-1.59-.58-.44-1.33-.66-2.24-.66h-6.59c-.8,0-1.51.3-2.11.89-.59.59-.9,1.31-.9,2.11,0,.64.14,1.24.48,1.89l23.61,33.68-24.88,35.1c-.08.16-.18.37-.29.65-.15.36-.23.74-.23,1.14,0,.82.33,1.54.97,2.13.63.58,1.35.87,2.14.87h6.37c.92,0,1.69-.25,2.28-.74.47-.4.92-.84,1.35-1.36l19.66-27.62,19.8,27.67c.41.49.88.94,1.39,1.33.62.48,1.35.72,2.2.72h6.7c.88,0,1.62-.3,2.22-.9.59-.59.89-1.3.89-2.11,0-.37-.05-.72-.14-1.05Z"/></svg>